<?xml version="1.0" encoding="UTF-8"?>
<svg id="Layer_1" data-name="Layer 1" xmlns="http://www.w3.org/2000/svg" viewBox="0 0 44.97 44.97">
  <defs>
    <style>
      .cls-1 {
        fill: none;
        stroke: #48d8a0;
        stroke-miterlimit: 10;
        stroke-width: 1.4px;
      }
    </style>
  </defs>
  <path class="cls-1" d="M36.21,9.35l6.64-7.75L9.55,8.74c-3.45.74-5.66,4.14-4.92,7.59l4.17,19.47-6.68,7.57,7.94-1.7,25.35-5.43c3.45-.74,5.65-4.14,4.92-7.59l-4.13-19.29Z"/>
  <path class="cls-1" d="M31.58,14.04l4.28-5.46-21.99,4.87c-2.28.5-3.72,2.76-3.22,5.04l2.77,12.53-4.3,5.37,5.24-1.16,16.74-3.71c2.28-.5,3.72-2.76,3.22-5.04l-2.75-12.44Z"/>
  <path class="cls-1" d="M26.94,18.72l1.93-3.17-10.69,2.61c-1.11.27-1.79,1.39-1.52,2.5l1.36,5.59-1.93,3.17,2.55-.62,8.14-1.98c1.11-.27,1.79-1.39,1.52-2.5l-1.36-5.59Z"/>
</svg>