<?xml version="1.0" encoding="UTF-8"?>
<svg id="Layer_1" data-name="Layer 1" xmlns="http://www.w3.org/2000/svg" viewBox="0 0 162.35 37.59">
  <defs>
    <style>
      .cls-1 {
        fill: none;
        stroke: #48d8a0;
        stroke-miterlimit: 10;
        stroke-width: 1.4px;
      }

      .cls-2 {
        fill: #fff;
      }
    </style>
  </defs>
  <g>
    <path class="cls-1" d="M22.51,7.79l3.72-6.33L3.57,10.72c-2.35.96-3.48,3.64-2.52,5.99l5.41,13.26-3.77,6.2,5.41-2.21,17.26-7.04c2.35-.96,3.48-3.64,2.52-5.99l-5.36-13.14Z"/>
    <path class="cls-1" d="M19.83,11.69l2.34-4.41-14.95,6.22c-1.55.64-2.29,2.42-1.64,3.98l3.54,8.52-2.37,4.34,3.57-1.48,11.39-4.74c1.55-.64,2.28-2.42,1.64-3.98l-3.51-8.46Z"/>
    <path class="cls-1" d="M17.14,15.59l.96-2.49-7.24,3.19c-.75.33-1.09,1.21-.76,1.96l1.67,3.79-.96,2.49,1.73-.76,5.51-2.43c.75-.33,1.09-1.21.76-1.96l-1.67-3.79Z"/>
  </g>
  <g>
    <path class="cls-2" d="M43.54,19.94h3.06v3.6c-.78.47-2,.74-3.3.74-3.42,0-5.21-2.75-5.21-5.47s1.79-5.49,5.21-5.49c1.5,0,2.72.49,3.62,1.44l.18.19,1.29-1.29-.18-.18c-1.24-1.22-2.9-1.84-4.93-1.84-4.05,0-7.1,3.08-7.1,7.16s2.99,7.16,7.1,7.16c1.85,0,3.59-.46,5.03-1.32l.12-.07v-6.32h-4.9v1.67Z"/>
    <path class="cls-2" d="M61.51,15.76c0-2.46-1.64-3.76-4.74-3.76h-4.11v13.65h1.84v-6.15h1.83l3.64,6.15h2.22l-3.88-6.31c1.96-.35,3.2-1.72,3.2-3.57ZM54.49,13.65h2.13c2.06,0,3.05.69,3.05,2.11,0,1.73-1.69,2.09-3.11,2.09h-2.07v-4.2Z"/>
    <rect class="cls-2" x="65.08" y="12" width="1.84" height="13.65"/>
    <path class="cls-2" d="M75.82,12h-4.61v13.65h4.61c3.47,0,7.16-2.39,7.16-6.82s-3.69-6.82-7.16-6.82ZM73.04,13.68h2.41c3.88,0,5.62,2.58,5.62,5.14s-1.74,5.14-5.62,5.14h-2.41v-10.27Z"/>
    <path class="cls-2" d="M90.76,17.91l-.24-.08c-1.4-.46-2.61-.86-2.61-2.32,0-1.63,1.53-2.22,2.55-2.22,1.09,0,1.95.42,2.51,1.21l.15.22,1.45-1.17-.14-.19c-.61-.82-1.96-1.7-3.92-1.7-2.14,0-4.45,1.21-4.45,3.87s1.91,3.36,3.74,3.93c1.61.5,3,.93,3,2.57,0,1.49-1.37,2.29-2.67,2.29-1.16,0-2.2-.57-2.79-1.53l-.14-.23-1.57,1.16.15.2c.94,1.29,2.56,2.05,4.34,2.05,2.19,0,4.54-1.26,4.54-4.04s-2.08-3.43-3.91-4.03Z"/>
    <polygon class="cls-2" points="96.47 13.68 100.87 13.68 100.87 25.64 102.71 25.64 102.71 13.68 107.11 13.68 107.11 12 96.47 12 96.47 13.68"/>
    <path class="cls-2" d="M118.73,15.76c0-2.46-1.64-3.76-4.74-3.76h-4.11v13.65h1.84v-6.15h1.83l3.64,6.15h2.22l-3.88-6.31c1.96-.35,3.2-1.72,3.2-3.57ZM111.71,13.65h2.13c2.06,0,3.05.69,3.05,2.11,0,1.73-1.69,2.09-3.11,2.09h-2.07v-4.2Z"/>
    <polygon class="cls-2" points="124.13 19.39 130.5 19.39 130.5 17.72 124.13 17.72 124.13 13.68 130.95 13.68 130.95 12 122.3 12 122.3 25.64 131.17 25.64 131.17 23.95 124.13 23.95 124.13 19.39"/>
    <path class="cls-2" d="M140.43,12h-1.63l-5.9,13.65h2.01l1.43-3.45h6.46l1.45,3.45h2.03l-5.8-13.5-.06-.15ZM142.1,20.46h-5.05l2.52-6.08,2.52,6.08Z"/>
    <polygon class="cls-2" points="159.88 12 155.64 22.49 151.34 12 148.88 12 148.88 25.64 150.72 25.64 150.72 15.14 155.03 25.49 155.1 25.64 156.13 25.64 160.51 15.14 160.51 25.64 162.35 25.64 162.35 12 159.88 12"/>
  </g>
</svg>